<svg width="16" height="16" viewBox="0 0 16 16" fill="none" xmlns="http://www.w3.org/2000/svg">
<path d="M11.017 2.33301H12.667C12.8438 2.33301 13.0134 2.40325 13.1384 2.52827C13.2634 2.65329 13.3337 2.82286 13.3337 2.99967V13.9997C13.3337 14.1765 13.2634 14.3461 13.1384 14.4711C13.0134 14.5961 12.8438 14.6663 12.667 14.6663H3.33366C3.15685 14.6663 2.98728 14.5961 2.86225 14.4711C2.73723 14.3461 2.66699 14.1765 2.66699 13.9997V2.99967C2.66699 2.82286 2.73723 2.65329 2.86225 2.52827C2.98728 2.40325 3.15685 2.33301 3.33366 2.33301H5.66699V3.33301H10.3337V2.33301H11.017Z" stroke="white" stroke-linejoin="round"/>
<path d="M5.66699 1.33301H10.3337V3.33301H5.66699V1.33301Z" stroke="white" stroke-linecap="round" stroke-linejoin="round"/>
<path d="M6 8.8L7.14286 10L10 7" stroke="white" stroke-linecap="round" stroke-linejoin="round"/>
</svg>
