<svg width="20" height="20" viewBox="0 0 20 20" fill="none" xmlns="http://www.w3.org/2000/svg">
<rect x="1.5" y="1.5" width="17" height="17" rx="8.5" stroke="#009FE3"/>
<path d="M7.88508 13.5251C7.66508 13.5251 7.49508 13.4684 7.37508 13.3551C7.26174 13.2351 7.20508 13.0651 7.20508 12.8451V7.1551C7.20508 6.9351 7.26174 6.76843 7.37508 6.6551C7.49508 6.5351 7.66508 6.4751 7.88508 6.4751H11.6651C11.8317 6.4751 11.9584 6.51843 12.0451 6.6051C12.1384 6.69176 12.1851 6.8151 12.1851 6.9751C12.1851 7.14176 12.1384 7.27176 12.0451 7.3651C11.9584 7.45176 11.8317 7.4951 11.6651 7.4951H8.43508V9.4151H10.3951C11.1484 9.4151 11.7351 9.58843 12.1551 9.9351C12.5817 10.2818 12.7951 10.7918 12.7951 11.4651C12.7951 12.1318 12.5817 12.6418 12.1551 12.9951C11.7351 13.3484 11.1484 13.5251 10.3951 13.5251H7.88508ZM8.43508 12.5051H10.2351C10.6884 12.5051 11.0217 12.4218 11.2351 12.2551C11.4484 12.0818 11.5551 11.8184 11.5551 11.4651C11.5551 11.1118 11.4484 10.8518 11.2351 10.6851C11.0217 10.5184 10.6884 10.4351 10.2351 10.4351H8.43508V12.5051Z" fill="#009FE3"/>
</svg>
