<svg width="12" height="12" viewBox="0 0 12 12" fill="none" xmlns="http://www.w3.org/2000/svg">
<path d="M5.48984 6.28898V7.82329H6.16072C6.73352 7.82329 7.08269 7.56549 7.08269 7.06653V7.05821C7.08269 6.55509 6.73745 6.28898 6.15288 6.28898H5.48984Z" fill="white"/>
<path fill-rule="evenodd" clip-rule="evenodd" d="M6 12C9.31371 12 12 9.31371 12 6C12 2.68629 9.31371 0 6 0C2.68629 0 0 2.68629 0 6C0 9.31371 2.68629 12 6 12ZM6.51382 9H4.05V3H8.05174V4.22661H5.48984V5.18295H6.45497C7.69473 5.18295 8.55 5.92308 8.55 7.05821V7.06653C8.55 8.24324 7.72219 9 6.51382 9Z" fill="white"/>
</svg>
