<svg width="20" height="20" viewBox="0 0 20 20" fill="none" xmlns="http://www.w3.org/2000/svg">
<path d="M2.92714 7.9062C3.35427 8.33333 4.04174 8.33333 5.41667 8.33333C6.7916 8.33333 7.47906 8.33333 7.9062 7.9062C8.33333 7.47906 8.33333 6.7916 8.33333 5.41667C8.33333 4.04174 8.33333 3.35427 7.9062 2.92714C7.47906 2.5 6.7916 2.5 5.41667 2.5C4.04174 2.5 3.35427 2.5 2.92714 2.92714C2.5 3.35427 2.5 4.04174 2.5 5.41667C2.5 6.7916 2.5 7.47906 2.92714 7.9062Z" stroke="#009FE3" stroke-linecap="round" stroke-linejoin="round"/>
<path d="M2.92714 17.0729C3.35427 17.5 4.04174 17.5 5.41667 17.5C6.7916 17.5 7.47906 17.5 7.9062 17.0729C8.33333 16.6457 8.33333 15.9583 8.33333 14.5833C8.33333 13.2084 8.33333 12.5209 7.9062 12.0938C7.47906 11.6667 6.7916 11.6667 5.41667 11.6667C4.04174 11.6667 3.35427 11.6667 2.92714 12.0938C2.5 12.5209 2.5 13.2084 2.5 14.5833C2.5 15.9583 2.5 16.6457 2.92714 17.0729Z" stroke="#009FE3" stroke-linecap="round" stroke-linejoin="round"/>
<path d="M12.5 3.33334H17.5" stroke="#009FE3" stroke-linecap="round" stroke-linejoin="round"/>
<path d="M12.5 12.5H17.5" stroke="#009FE3" stroke-linecap="round" stroke-linejoin="round"/>
<path d="M12.5 7.5H17.5" stroke="#009FE3" stroke-linecap="round" stroke-linejoin="round"/>
<path d="M12.5 16.6667H17.5" stroke="#009FE3" stroke-linecap="round" stroke-linejoin="round"/>
</svg>
