<svg width="20" height="20" viewBox="0 0 20 20" fill="none" xmlns="http://www.w3.org/2000/svg">
<path d="M17.4998 6.25008L14.1665 7.91675M14.1665 7.91675L13.7498 8.12508L9.99984 10.0001M14.1665 7.91675V10.8334M14.1665 7.91675L6.24984 3.75008M9.99984 10.0001L2.49984 6.25008M9.99984 10.0001V17.9167M12.9815 2.81841L14.6482 3.69341C16.4407 4.63425 17.3373 5.10425 17.8357 5.95008C18.3332 6.79508 18.3332 7.84758 18.3332 9.95175V10.0492C18.3332 12.1526 18.3332 13.2051 17.8357 14.0501C17.3373 14.8959 16.4407 15.3667 14.6482 16.3076L12.9815 17.1817C11.5182 17.9492 10.7865 18.3334 9.99984 18.3334C9.21317 18.3334 8.4815 17.9501 7.01817 17.1817L5.3515 16.3067C3.559 15.3659 2.66234 14.8959 2.164 14.0501C1.6665 13.2051 1.6665 12.1526 1.6665 10.0501V9.95258C1.6665 7.84841 1.6665 6.79591 2.164 5.95091C2.66234 5.10508 3.559 4.63425 5.3515 3.69425L7.01817 2.81925C8.4815 2.05091 9.21317 1.66675 9.99984 1.66675C10.7865 1.66675 11.5182 2.05008 12.9815 2.81841Z" stroke="#009FE3" stroke-linecap="round"/>
</svg>
