<svg width="24" height="25" viewBox="0 0 24 25" fill="none" xmlns="http://www.w3.org/2000/svg">
<path fill-rule="evenodd" clip-rule="evenodd" d="M9.94398 3.75H14.056C15.894 3.75 17.35 3.75 18.489 3.903C19.661 4.061 20.61 4.393 21.359 5.141C22.107 5.89 22.439 6.839 22.597 8.011C22.687 8.684 22.724 9.467 22.739 10.374C22.7521 10.45 22.7534 10.5276 22.743 10.604C22.75 11.17 22.75 11.782 22.75 12.444V12.556C22.75 14.394 22.75 15.85 22.597 16.989C22.439 18.161 22.107 19.11 21.359 19.859C20.61 20.607 19.661 20.939 18.489 21.097C17.349 21.25 15.894 21.25 14.056 21.25H9.94398C8.10598 21.25 6.64999 21.25 5.51099 21.097C4.33899 20.939 3.38999 20.607 2.64099 19.859C1.89299 19.11 1.56099 18.161 1.40299 16.989C1.24999 15.849 1.24999 14.394 1.24999 12.556V12.444C1.24999 11.782 1.24999 11.17 1.25699 10.604C1.24626 10.5276 1.24728 10.4501 1.25999 10.374C1.27599 9.467 1.31299 8.684 1.40299 8.011C1.56099 6.839 1.89299 5.89 2.64099 5.141C3.38999 4.393 4.33899 4.061 5.51099 3.903C6.65099 3.75 8.10598 3.75 9.94398 3.75ZM2.75199 11.25C2.74999 11.638 2.74999 12.054 2.74999 12.5C2.74999 14.407 2.75199 15.762 2.88999 16.79C3.02499 17.795 3.27898 18.375 3.70198 18.798C4.12498 19.221 4.70499 19.475 5.71099 19.61C6.73899 19.748 8.09298 19.75 9.99998 19.75H14C15.907 19.75 17.262 19.748 18.29 19.61C19.295 19.475 19.875 19.221 20.298 18.798C20.721 18.375 20.975 17.795 21.11 16.789C21.248 15.761 21.25 14.407 21.25 12.5C21.25 12.054 21.25 11.638 21.248 11.25H2.75199ZM21.224 9.75H2.77599C2.79599 9.163 2.82999 8.656 2.88999 8.21C3.02499 7.205 3.27898 6.625 3.70198 6.202C4.12498 5.779 4.70499 5.525 5.71099 5.39C6.73899 5.252 8.09298 5.25 9.99998 5.25H14C15.907 5.25 17.262 5.252 18.29 5.39C19.295 5.525 19.875 5.779 20.298 6.202C20.721 6.625 20.975 7.205 21.11 8.211C21.17 8.656 21.204 9.163 21.224 9.75ZM5.24999 16.5C5.24999 16.3011 5.329 16.1103 5.46966 15.9697C5.61031 15.829 5.80107 15.75 5.99999 15.75H9.99998C10.1989 15.75 10.3897 15.829 10.5303 15.9697C10.671 16.1103 10.75 16.3011 10.75 16.5C10.75 16.6989 10.671 16.8897 10.5303 17.0303C10.3897 17.171 10.1989 17.25 9.99998 17.25H5.99999C5.80107 17.25 5.61031 17.171 5.46966 17.0303C5.329 16.8897 5.24999 16.6989 5.24999 16.5ZM11.75 16.5C11.75 16.3011 11.829 16.1103 11.9697 15.9697C12.1103 15.829 12.3011 15.75 12.5 15.75H14C14.1989 15.75 14.3897 15.829 14.5303 15.9697C14.671 16.1103 14.75 16.3011 14.75 16.5C14.75 16.6989 14.671 16.8897 14.5303 17.0303C14.3897 17.171 14.1989 17.25 14 17.25H12.5C12.3011 17.25 12.1103 17.171 11.9697 17.0303C11.829 16.8897 11.75 16.6989 11.75 16.5Z" fill="#009FE3"/>
</svg>
