<svg width="16" height="16" viewBox="0 0 16 16" fill="none" xmlns="http://www.w3.org/2000/svg">
<g clip-path="url(#clip0_1352_11162)">
<path d="M13.9997 5.00016L11.333 6.3335M11.333 6.3335L10.9997 6.50016L7.99967 8.00016M11.333 6.3335V8.66683M11.333 6.3335L4.99967 3.00016M7.99967 8.00016L1.99967 5.00016M7.99967 8.00016V14.3335M10.385 2.25483L11.7183 2.95483C13.1523 3.7075 13.8697 4.0835 14.2683 4.76016C14.6663 5.43616 14.6663 6.27816 14.6663 7.9615V8.0395C14.6663 9.72216 14.6663 10.5642 14.2683 11.2402C13.8697 11.9168 13.1523 12.2935 11.7183 13.0462L10.385 13.7455C9.21434 14.3595 8.62901 14.6668 7.99967 14.6668C7.37034 14.6668 6.78501 14.3602 5.61434 13.7455L4.28101 13.0455C2.84701 12.2928 2.12967 11.9168 1.73101 11.2402C1.33301 10.5642 1.33301 9.72216 1.33301 8.04016V7.96216C1.33301 6.27883 1.33301 5.43683 1.73101 4.76083C2.12967 4.08416 2.84701 3.7075 4.28101 2.9555L5.61434 2.2555C6.78501 1.64083 7.37034 1.3335 7.99967 1.3335C8.62901 1.3335 9.21434 1.64016 10.385 2.25483Z" stroke="white" stroke-linecap="round"/>
</g>
<defs>
<clipPath id="clip0_1352_11162">
<rect width="16" height="16" fill="white"/>
</clipPath>
</defs>
</svg>
