<svg width="14" height="14" viewBox="0 0 14 14" fill="none" xmlns="http://www.w3.org/2000/svg">
<path d="M5.91683 3.74992H8.0835C8.0835 3.4626 7.96936 3.18705 7.76619 2.98389C7.56303 2.78072 7.28748 2.66659 7.00016 2.66659C6.71284 2.66659 6.43729 2.78072 6.23413 2.98389C6.03097 3.18705 5.91683 3.4626 5.91683 3.74992ZM4.8335 3.74992C4.8335 3.17528 5.06177 2.62418 5.4681 2.21785C5.87443 1.81153 6.42553 1.58325 7.00016 1.58325C7.5748 1.58325 8.1259 1.81153 8.53223 2.21785C8.93856 2.62418 9.16683 3.17528 9.16683 3.74992H11.8752C12.0188 3.74992 12.1566 3.80699 12.2582 3.90857C12.3598 4.01015 12.4168 4.14793 12.4168 4.29158C12.4168 4.43524 12.3598 4.57302 12.2582 4.6746C12.1566 4.77618 12.0188 4.83325 11.8752 4.83325H11.3974L10.9175 10.4341C10.8714 10.9749 10.6239 11.4787 10.2241 11.8459C9.82426 12.213 9.30121 12.4166 8.75841 12.4166H5.24191C4.69911 12.4166 4.17606 12.213 3.77624 11.8459C3.37643 11.4787 3.12897 10.9749 3.08283 10.4341L2.60291 4.83325H2.12516C1.9815 4.83325 1.84373 4.77618 1.74215 4.6746C1.64056 4.57302 1.5835 4.43524 1.5835 4.29158C1.5835 4.14793 1.64056 4.01015 1.74215 3.90857C1.84373 3.80699 1.9815 3.74992 2.12516 3.74992H4.8335ZM8.62516 6.99992C8.62516 6.85626 8.56809 6.71848 8.46651 6.6169C8.36493 6.51532 8.22715 6.45825 8.0835 6.45825C7.93984 6.45825 7.80206 6.51532 7.70048 6.6169C7.5989 6.71848 7.54183 6.85626 7.54183 6.99992V9.16658C7.54183 9.31024 7.5989 9.44802 7.70048 9.5496C7.80206 9.65118 7.93984 9.70825 8.0835 9.70825C8.22715 9.70825 8.36493 9.65118 8.46651 9.5496C8.56809 9.44802 8.62516 9.31024 8.62516 9.16658V6.99992ZM5.91683 6.45825C6.06049 6.45825 6.19826 6.51532 6.29985 6.6169C6.40143 6.71848 6.4585 6.85626 6.4585 6.99992V9.16658C6.4585 9.31024 6.40143 9.44802 6.29985 9.5496C6.19826 9.65118 6.06049 9.70825 5.91683 9.70825C5.77317 9.70825 5.6354 9.65118 5.53381 9.5496C5.43223 9.44802 5.37516 9.31024 5.37516 9.16658V6.99992C5.37516 6.85626 5.43223 6.71848 5.53381 6.6169C5.6354 6.51532 5.77317 6.45825 5.91683 6.45825ZM4.16183 10.342C4.18491 10.6125 4.30871 10.8645 4.50874 11.0481C4.70876 11.2316 4.97042 11.3334 5.24191 11.3333H8.75841C9.02972 11.3331 9.29111 11.2312 9.4909 11.0477C9.6907 10.8642 9.81435 10.6123 9.83741 10.342L10.3097 4.83325H3.69058L4.16183 10.342Z" fill="#222222" fill-opacity="0.4"/>
</svg>
