<svg width="20" height="20" viewBox="0 0 20 20" fill="none" xmlns="http://www.w3.org/2000/svg">
<path d="M12.4998 14.9999C12.4998 15.9204 13.246 16.6666 14.1665 16.6666C15.087 16.6666 15.8332 15.9204 15.8332 14.9999C15.8332 14.0794 15.087 13.3333 14.1665 13.3333C13.246 13.3333 12.4998 14.0794 12.4998 14.9999ZM12.4998 14.9999H7.49984M7.49984 14.9999C7.49984 15.9204 6.75364 16.6666 5.83317 16.6666C4.9127 16.6666 4.1665 15.9204 4.1665 14.9999C4.1665 14.0794 4.9127 13.3333 5.83317 13.3333C6.75364 13.3333 7.49984 14.0794 7.49984 14.9999ZM4.1665 14.9766C3.25234 14.9316 2.68317 14.7957 2.2765 14.3899C1.86984 13.9841 1.73484 13.4141 1.68984 12.4999M15.8332 14.9766C16.7473 14.9316 17.3165 14.7957 17.7232 14.3899C18.3332 13.7791 18.3332 12.7974 18.3332 10.8333V9.16658M18.3332 9.16658H14.4165C13.7957 9.16658 13.4857 9.16658 13.2348 9.08492C12.9847 9.00364 12.7574 8.86432 12.5714 8.67835C12.3854 8.49238 12.2461 8.26504 12.1648 8.01492C12.0832 7.76408 12.0832 7.45408 12.0832 6.83325C12.0832 5.90242 12.0832 5.43742 11.9607 5.06075C11.8387 4.68556 11.6298 4.34455 11.3508 4.0656C11.0719 3.78665 10.7309 3.57767 10.3557 3.45575C9.979 3.33325 9.514 3.33325 8.58317 3.33325H1.6665M18.3332 9.16658L17.2698 7.19158C16.6948 6.12325 16.4073 5.58909 15.9132 5.29492C15.4198 4.99992 14.814 4.99992 13.6007 4.99992H12.0832M1.6665 6.66658H6.6665M1.6665 9.16658H4.99984" stroke="#009FE3" stroke-linecap="round" stroke-linejoin="round"/>
</svg>
