<svg width="12" height="10" viewBox="0 0 12 10" fill="none" xmlns="http://www.w3.org/2000/svg">
<path d="M11.0003 5.74836L7.0169 9.42002C6.7528 9.66333 6.39466 9.80001 6.02123 9.80001C5.64779 9.80001 5.28965 9.66333 5.02555 9.42002L1.04214 5.74901C0.712855 5.4482 0.451285 5.09041 0.272446 4.69618C0.0936082 4.30196 0.00102373 3.87906 8.44187e-06 3.45177C-0.00100684 3.02448 0.0895671 2.60122 0.26653 2.20627C0.443493 1.81133 0.70336 1.45249 1.03121 1.15035C1.35906 0.84821 1.74844 0.608724 2.177 0.445639C2.60555 0.282555 3.06484 0.199084 3.52849 0.20002C3.99214 0.200956 4.45103 0.286279 4.8788 0.451091C5.30657 0.615904 5.69481 0.85696 6.02123 1.16042C6.68423 0.564617 7.57526 0.233529 8.50128 0.238876C9.4273 0.244223 10.3138 0.585576 10.9686 1.18899C11.6235 1.7924 11.994 2.60928 11.9999 3.46268C12.0059 4.31608 11.6467 5.13727 11.0003 5.74836Z" fill="#009FE3"/>
</svg>
