<svg width="20" height="20" viewBox="0 0 20 20" fill="none" xmlns="http://www.w3.org/2000/svg">
<mask id="path-1-inside-1_2779_185" fill="white">
<path fill-rule="evenodd" clip-rule="evenodd" d="M7.59798 1.25C7.0457 1.25 6.59798 1.69772 6.59798 2.25V6.09723C6.59798 6.37338 6.37412 6.59723 6.09798 6.59723H2.25C1.69772 6.59723 1.25 7.04495 1.25 7.59723L1.25 12.4028C1.25 12.9551 1.69772 13.4028 2.25 13.4028H6.09798C6.37412 13.4028 6.59798 13.6266 6.59798 13.9028V17.75C6.59798 18.3023 7.0457 18.75 7.59798 18.75H12.4035C12.9558 18.75 13.4035 18.3023 13.4035 17.75V13.9028C13.4035 13.6266 13.6274 13.4028 13.9035 13.4028H17.75C18.3023 13.4028 18.75 12.9551 18.75 12.4028V7.59723C18.75 7.04495 18.3023 6.59723 17.75 6.59723H13.9035C13.6274 6.59723 13.4035 6.37338 13.4035 6.09723V2.25C13.4035 1.69772 12.9558 1.25 12.4035 1.25H7.59798Z"/>
</mask>
<path d="M2.25 6.59723V5.59723V6.59723ZM1.25 7.59723H2.25H1.25ZM1.25 12.4028H0.25H1.25ZM17.75 6.59723V7.59723V6.59723ZM7.59798 2.25V2.25V0.25C6.49341 0.25 5.59798 1.14543 5.59798 2.25H7.59798ZM7.59798 6.09723V2.25H5.59798V6.09723H7.59798ZM2.25 7.59723H6.09798V5.59723H2.25V7.59723ZM2.25 7.59723V5.59723C1.14543 5.59723 0.25 6.49266 0.25 7.59723H2.25ZM2.25 12.4028L2.25 7.59723H0.25L0.25 12.4028H2.25ZM2.25 12.4028H2.25H0.25C0.25 13.5074 1.14543 14.4028 2.25 14.4028V12.4028ZM6.09798 12.4028H2.25V14.4028H6.09798V12.4028ZM7.59798 17.75V13.9028H5.59798V17.75H7.59798ZM7.59798 17.75H5.59798C5.59798 18.8546 6.49341 19.75 7.59798 19.75V17.75ZM12.4035 17.75H7.59798V19.75H12.4035V17.75ZM12.4035 17.75V19.75C13.5081 19.75 14.4035 18.8546 14.4035 17.75H12.4035ZM12.4035 13.9028V17.75H14.4035V13.9028H12.4035ZM17.75 12.4028H13.9035V14.4028H17.75V12.4028ZM17.75 12.4028V14.4028C18.8546 14.4028 19.75 13.5074 19.75 12.4028H17.75ZM17.75 7.59723V12.4028H19.75V7.59723H17.75ZM17.75 7.59723V7.59723H19.75C19.75 6.49267 18.8546 5.59723 17.75 5.59723V7.59723ZM13.9035 7.59723H17.75V5.59723L13.9035 5.59723V7.59723ZM12.4035 2.25V6.09723H14.4035V2.25H12.4035ZM12.4035 2.25H14.4035C14.4035 1.14543 13.5081 0.25 12.4035 0.25V2.25ZM7.59798 2.25H12.4035V0.25H7.59798V2.25ZM13.9035 5.59723C14.1797 5.59723 14.4035 5.82109 14.4035 6.09723H12.4035C12.4035 6.92566 13.0751 7.59723 13.9035 7.59723V5.59723ZM14.4035 13.9028C14.4035 14.1789 14.1797 14.4028 13.9035 14.4028V12.4028C13.0751 12.4028 12.4035 13.0744 12.4035 13.9028H14.4035ZM6.09798 14.4028C5.82184 14.4028 5.59798 14.1789 5.59798 13.9028H7.59798C7.59798 13.0744 6.92641 12.4028 6.09798 12.4028V14.4028ZM5.59798 6.09723C5.59798 5.82109 5.82184 5.59723 6.09798 5.59723V7.59723C6.92641 7.59723 7.59798 6.92566 7.59798 6.09723H5.59798Z" fill="#009FE3" mask="url(#path-1-inside-1_2779_185)"/>
</svg>
