<svg width="16" height="16" viewBox="0 0 16 16" fill="none" xmlns="http://www.w3.org/2000/svg">
<path d="M14.0392 5.00065H11.2076C11.353 4.90571 11.4907 4.7987 11.6194 4.68067C11.8136 4.50063 11.97 4.28085 12.0788 4.03507C12.1877 3.78928 12.2467 3.52278 12.2522 3.25219C12.2606 2.95453 12.2105 2.65822 12.1051 2.3814C11.9996 2.10458 11.8409 1.85309 11.6388 1.64232C11.4367 1.43155 11.1953 1.26595 10.9296 1.15566C10.6638 1.04537 10.3792 0.992711 10.0931 1.00091C9.83315 1.00658 9.57707 1.06798 9.34091 1.18129C9.10475 1.29459 8.89358 1.45737 8.72059 1.65944C8.40269 2.04987 8.15824 2.49909 8 2.98364C7.8421 2.49945 7.59812 2.05049 7.28078 1.66015C7.1077 1.45778 6.89633 1.29477 6.65992 1.18133C6.4235 1.06789 6.16714 1.00647 5.90686 1.00091C5.62068 0.992319 5.33582 1.04466 5.06977 1.15474C4.80371 1.26481 4.56206 1.43028 4.35965 1.64101C4.15723 1.85174 3.99831 2.10329 3.89264 2.38022C3.78696 2.65715 3.73675 2.95363 3.7451 3.25148C3.75054 3.52206 3.80955 3.78857 3.91841 4.03435C4.02728 4.28014 4.18368 4.49991 4.37784 4.67996C4.50652 4.79808 4.64423 4.9051 4.78961 4.99994H1.96078C1.83455 4.99993 1.70956 5.02582 1.59295 5.07612C1.47634 5.12641 1.37039 5.20013 1.28116 5.29306C1.19194 5.38599 1.12118 5.49631 1.07294 5.61771C1.02469 5.73911 0.99991 5.86921 1 6.00058V8.28615C1 8.55135 1.10123 8.80569 1.28141 8.99321C1.46159 9.18074 1.70597 9.28609 1.96078 9.28609H2.09804V14.0001C2.09804 14.2653 2.19926 14.5196 2.37945 14.7071C2.55963 14.8946 2.80401 15 3.05882 15H12.9412C13.196 15 13.4404 14.8946 13.6206 14.7071C13.8007 14.5196 13.902 14.2653 13.902 14.0001V9.28609H14.0392C14.294 9.28609 14.5384 9.18074 14.7186 8.99321C14.8988 8.80569 15 8.55135 15 8.28615V6.00058C15 5.73539 14.8988 5.48105 14.7186 5.29352C14.5384 5.106 14.294 5.00065 14.0392 5.00065ZM8.53324 4.21499C8.68765 3.34933 8.9649 2.66152 9.33549 2.22583C9.43466 2.11192 9.5553 2.02048 9.6899 1.9572C9.82449 1.89392 9.97016 1.86015 10.1178 1.858H10.1556C10.3263 1.85802 10.4953 1.89369 10.6526 1.96289C10.8098 2.03209 10.9521 2.13343 11.0711 2.26089C11.1901 2.38836 11.2832 2.53937 11.3451 2.70498C11.407 2.87059 11.4363 3.04743 11.4314 3.22505C11.429 3.37891 11.3963 3.53061 11.3351 3.6707C11.2739 3.81079 11.1857 3.93626 11.0759 4.03928C10.3402 4.71495 9.09255 4.91708 8.4351 4.97565C8.45226 4.76924 8.48039 4.5064 8.53324 4.21499ZM4.94265 2.24726C5.18223 1.99893 5.50629 1.85905 5.84441 1.858H5.88216C6.02999 1.86042 6.17575 1.89452 6.31036 1.95818C6.44496 2.02183 6.56552 2.11368 6.66451 2.22797C7.31373 2.99364 7.50794 4.29212 7.56422 4.97637C7.36588 4.95851 7.11333 4.9278 6.83608 4.87423C6.00431 4.71495 5.34343 4.42497 4.9248 4.03857C4.81481 3.9358 4.7264 3.8105 4.66511 3.67051C4.60382 3.53052 4.57097 3.37887 4.56863 3.22505C4.56389 3.04418 4.59461 2.86419 4.65892 2.69608C4.72322 2.52797 4.81976 2.37526 4.94265 2.24726ZM1.82353 8.28615V6.00058C1.82353 5.9627 1.83799 5.92637 1.86373 5.89958C1.88947 5.87279 1.92438 5.85774 1.96078 5.85774H7.58824V8.429H1.96078C1.92438 8.429 1.88947 8.41395 1.86373 8.38716C1.83799 8.36037 1.82353 8.32404 1.82353 8.28615ZM2.92157 14.0001V9.28609H7.58824V14.1429H3.05882C3.02242 14.1429 2.98751 14.1279 2.96177 14.1011C2.93603 14.0743 2.92157 14.038 2.92157 14.0001ZM13.0784 14.0001C13.0784 14.038 13.064 14.0743 13.0382 14.1011C13.0125 14.1279 12.9776 14.1429 12.9412 14.1429H8.41177V9.28609H13.0784V14.0001ZM14.1765 8.28615C14.1765 8.32404 14.162 8.36037 14.1363 8.38716C14.1105 8.41395 14.0756 8.429 14.0392 8.429H8.41177V5.85774H14.0392C14.0756 5.85774 14.1105 5.87279 14.1363 5.89958C14.162 5.92637 14.1765 5.9627 14.1765 6.00058V8.28615Z" fill="#009FE3"/>
</svg>
