<svg width="44" height="44" viewBox="0 0 44 44" fill="none" xmlns="http://www.w3.org/2000/svg">
<path d="M10.7737 4.82545V4.82545C8.0572 4.82545 6.69896 4.82545 5.83254 5.64111C5.78861 5.68247 5.74594 5.72514 5.70458 5.76907C4.88892 6.63549 4.88892 7.99374 4.88892 10.7102V21.6278C4.88892 27.0608 4.88892 29.7772 6.52024 31.5101C6.60296 31.5979 6.68831 31.6833 6.77617 31.766C8.50901 33.3973 11.2255 33.3973 16.6585 33.3973V33.3973M10.7737 4.82545C10.7737 6.14043 11.8276 7.20644 13.1276 7.20644C14.4276 7.20644 15.4815 6.14043 15.4815 4.82545C15.4815 3.51046 14.4276 2.44446 13.1276 2.44446C11.8276 2.44446 10.7737 3.51046 10.7737 4.82545ZM23.7202 4.82545C23.7202 6.14043 22.6663 7.20644 21.3663 7.20644C20.0663 7.20644 19.0124 6.14043 19.0124 4.82545C19.0124 3.51046 20.0663 2.44446 21.3663 2.44446C22.6663 2.44446 23.7202 3.51046 23.7202 4.82545ZM23.7202 4.82545V4.82545C25.3134 4.82545 26.1101 4.82545 26.7251 5.12034C27.341 5.41569 27.8378 5.91241 28.1331 6.52838C28.428 7.14339 28.428 7.94002 28.428 9.53327V21.6278C28.428 27.0608 28.428 29.7772 26.7967 31.5101C26.714 31.5979 26.6286 31.6833 26.5408 31.766C24.8079 33.3973 22.0914 33.3973 16.6585 33.3973V33.3973M16.6585 33.3973C16.6585 45.3023 36.6667 46.4928 36.6667 33.3973V23.8734" stroke="#009FE3" stroke-width="2"/>
<path d="M40.3333 19.5556C40.3333 21.5806 38.6917 23.2222 36.6667 23.2222C34.6416 23.2222 33 21.5806 33 19.5556C33 17.5305 34.6416 15.8889 36.6667 15.8889C38.6917 15.8889 40.3333 17.5305 40.3333 19.5556Z" stroke="#009FE3" stroke-width="2"/>
</svg>
