<svg width="16" height="16" viewBox="0 0 16 16" fill="none" xmlns="http://www.w3.org/2000/svg">
<path d="M14.5968 5.31261C14.5885 5.23078 14.5792 5.15117 14.5688 5.07369M14.5968 5.31261L14.5688 5.07369M14.5968 5.31261C14.5885 5.23031 14.5793 5.15081 14.5691 5.07397L14.5968 5.31261ZM14.5688 5.07369C14.5688 5.0738 14.5688 5.0739 14.5688 5.074L14.0733 5.14049L14.5688 5.07369ZM14.4306 4.40126C14.4907 4.60278 14.5356 4.82569 14.569 5.07389L14.4306 4.40126ZM14.4306 4.40126C14.3866 4.25387 14.3345 4.11792 14.2727 3.99188M14.4306 4.40126C14.3867 4.25383 14.3345 4.11788 14.2727 3.99188M14.2727 3.99188C14.1717 3.78615 14.0448 3.60693 13.8855 3.44762C13.5676 3.12975 13.1705 2.94102 12.6419 2.82925M14.2727 3.99188C14.1717 3.78623 14.045 3.60697 13.8858 3.44746M12.6419 2.82925L14.2392 3.09384M12.6419 2.82925C13.1704 2.94114 13.5674 3.12962 13.8858 3.44746M12.6419 2.82925L14.2392 3.09384M12.6419 2.82925C12.5214 2.80375 12.3941 2.78222 12.2593 2.76405L12.6419 2.82925ZM12.6419 2.82925C12.5215 2.80382 12.3944 2.78237 12.2598 2.76429L12.2598 2.76428C11.5856 2.67378 10.7247 2.66704 9.59924 2.66654C10.7247 2.66701 11.5855 2.67357 12.2591 2.76402L12.6419 2.82925ZM13.8858 3.44746C13.8858 3.44752 13.8859 3.44757 13.8859 3.44763L14.2392 3.09384M13.8858 3.44746C13.8857 3.44736 13.8856 3.44726 13.8855 3.44715L14.2392 3.09384M1.43103 10.9264L1.43102 10.9264C1.33448 10.2072 1.33326 9.27571 1.33324 8.03717C1.33324 9.27559 1.33427 10.2065 1.43076 10.9257L1.43103 10.9264ZM1.43103 10.9264C1.49329 11.39 1.59557 11.7653 1.763 12.0777M1.43103 10.9264L2.65862 12.9392M13.4111 12.9034C13.0985 13.0708 12.7231 13.1731 12.2594 13.2356C11.5992 13.3242 10.7605 13.3324 9.66923 13.3331C10.7605 13.3323 11.5996 13.324 12.2598 13.2354L12.2598 13.2354C12.7234 13.1731 13.0987 13.0708 13.4111 12.9034ZM13.4111 12.9034C13.5878 12.8087 13.7445 12.6932 13.8857 12.5523C14.0449 12.3928 14.1717 12.2135 14.2727 12.0078C14.1717 12.2135 14.0448 12.3927 13.8855 12.5521C13.7444 12.6931 13.5878 12.8087 13.4111 12.9034ZM2.65862 12.9392C2.45288 12.8382 2.27367 12.7114 2.11436 12.5521C1.97334 12.411 1.85774 12.2544 1.763 12.0777M2.65862 12.9392C2.45297 12.8383 2.2737 12.7116 2.1142 12.5524C1.97321 12.4111 1.85768 12.2545 1.763 12.0777M2.65862 12.9392L1.4308 10.926C1.49333 11.3897 1.59557 11.7651 1.763 12.0777M1.43079 5.07373C1.42171 5.14165 1.41347 5.21164 1.40598 5.28381C1.41349 5.21195 1.42181 5.14179 1.43103 5.07327L1.43079 5.07373ZM1.43079 5.07373C1.44896 4.93898 1.47049 4.81169 1.49599 4.69122M1.43079 5.07373L1.43104 5.07317C1.44911 4.93863 1.47056 4.81152 1.49599 4.69122M1.49599 4.69122C1.60787 4.16275 1.79633 3.76572 2.11413 3.44739C2.27518 3.28661 2.45637 3.15893 2.66454 3.05753C2.45632 3.159 2.2752 3.28678 2.11436 3.44762C1.79649 3.76548 1.60775 4.16255 1.49599 4.69122ZM3.06799 2.90246C3.2695 2.84237 3.49245 2.7976 3.74072 2.76428L3.06799 2.90246ZM3.06799 2.90246C3.26946 2.84235 3.4923 2.79752 3.74042 2.76406L3.06799 2.90246ZM14.6627 6.6665L14.6663 6.6665L14.6665 6.66726L14.6665 6.66827L14.6628 6.69522L14.6627 6.6665ZM14.6652 7.16393L14.6643 6.98349C14.6666 7.28866 14.6666 7.61398 14.6666 7.9625C14.6666 7.67943 14.6665 7.41319 14.6652 7.16393ZM1.33715 6.6665L1.337 6.69445L1.33305 6.66632L1.33307 6.66491L1.33336 6.66316L1.33325 6.6665L1.33715 6.6665ZM1.33324 7.9625C1.33324 7.61409 1.33325 7.28886 1.33551 6.98378L1.33458 7.16393C1.3333 7.4132 1.33324 7.67943 1.33324 7.9625ZM14.5691 10.9257C14.5356 11.1739 14.4907 11.3969 14.4306 11.5984C14.4907 11.3969 14.5355 11.174 14.5688 10.9257C14.6593 10.2515 14.666 9.39124 14.6665 8.26584C14.6661 9.39129 14.6595 10.2521 14.5691 10.9257ZM6.40057 13.3331C5.27499 13.3327 4.41407 13.3261 3.74047 13.2356C3.49234 13.2022 3.26948 13.1573 3.068 13.0972C3.2695 13.1573 3.49245 13.2021 3.74072 13.2354C4.4149 13.3259 5.27517 13.3326 6.40057 13.3331ZM3.74071 2.76402C4.45988 2.66753 5.39082 2.6665 6.62924 2.6665C5.39072 2.66652 4.45987 2.66774 3.74074 2.76428L3.74071 2.76402Z" stroke="#222222" stroke-opacity="0.4"/>
</svg>
