<svg width="44" height="44" viewBox="0 0 44 44" fill="none" xmlns="http://www.w3.org/2000/svg">
<path d="M33.7334 37.6445C38.0534 37.6445 41.5556 34.1423 41.5556 29.8223C41.5556 25.5022 38.0534 22 33.7334 22C29.4133 22 25.9111 25.5022 25.9111 29.8223C25.9111 34.1423 29.4133 37.6445 33.7334 37.6445Z" stroke="#009FE3" stroke-width="2"/>
<path d="M10.2666 37.6445C14.5867 37.6445 18.0888 34.1423 18.0888 29.8223C18.0888 25.5022 14.5867 22 10.2666 22C5.94646 22 2.44434 25.5022 2.44434 29.8223C2.44434 34.1423 5.94646 37.6445 10.2666 37.6445Z" stroke="#009FE3" stroke-width="2"/>
<path d="M25.911 30.2407L24.6282 29.7831C22.9284 29.1768 21.0713 29.1768 19.3716 29.7831L18.0888 30.2407M2.44434 29.8222L3.93642 13.4053C4.16131 10.9335 4.27474 9.69761 4.99829 8.78436C5.72185 7.87112 6.89909 7.47805 9.25358 6.69192L10.2666 6.35556M41.5554 29.8222L40.0634 13.4053C39.8385 10.9335 39.727 9.69761 39.0034 8.78436C38.2799 7.87112 37.1007 7.47805 34.7462 6.69192L33.7332 6.35556" stroke="#009FE3" stroke-width="2" stroke-linecap="round"/>
</svg>
