<svg width="44" height="44" viewBox="0 0 44 44" fill="none" xmlns="http://www.w3.org/2000/svg">
<path d="M25.5 13.1111C26.4283 13.1111 27.3185 12.7365 27.9749 12.0697C28.6313 11.4029 29 10.4985 29 9.55556C29 8.61256 28.6313 7.70819 27.9749 7.0414C27.3185 6.3746 26.4283 6 25.5 6H18.5C17.5717 6 16.6815 6.3746 16.0251 7.0414C15.3687 7.70819 15 8.61256 15 9.55556C15 10.4985 15.3687 11.4029 16.0251 12.0697C16.6815 12.7365 17.5717 13.1111 18.5 13.1111M25.5 13.1111H18.5M25.5 13.1111V22.1636C25.4999 23.2165 25.193 24.2458 24.618 25.1218L22.882 27.7671C22.307 28.6431 22.0001 29.6724 22 30.7253M18.5 13.1111V22.1636C18.5001 23.2165 18.807 24.2458 19.382 25.1218L21.118 27.7671C21.693 28.6431 21.9999 29.6724 22 30.7253M20.25 38H23.75M22 38V30.7253M18.5 20.2222H25.5" stroke="#009FE3" stroke-width="2" stroke-linecap="round" stroke-linejoin="round"/>
</svg>
