<svg width="20" height="20" viewBox="0 0 20 20" fill="none" xmlns="http://www.w3.org/2000/svg">
<path d="M16.9447 11.1693L11.4122 16.9063C11.0454 17.2864 10.548 17.5 10.0293 17.5C9.51066 17.5 9.01324 17.2864 8.64643 16.9063L3.11392 11.1703C2.65658 10.7003 2.29329 10.1412 2.0449 9.52527C1.79652 8.90929 1.66793 8.24852 1.66652 7.58088C1.66511 6.91324 1.7909 6.25188 2.03668 5.63479C2.28247 5.01769 2.64339 4.457 3.09874 3.9849C3.55409 3.51281 4.0949 3.13861 4.69011 2.88379C5.28532 2.62897 5.92322 2.49855 6.56718 2.50001C7.21114 2.50147 7.84848 2.63479 8.44262 2.89231C9.03675 3.14983 9.57597 3.52648 10.0293 4.00064C10.9502 3.0697 12.1877 2.55237 13.4738 2.56072C14.76 2.56908 15.9912 3.10244 16.9007 4.04527C17.8102 4.98811 18.3248 6.26449 18.3331 7.59792C18.3413 8.93135 17.8425 10.2145 16.9447 11.1693Z" stroke="#009FE3" stroke-linecap="round" stroke-linejoin="round"/>
</svg>
