<svg width="44" height="44" viewBox="0 0 44 44" fill="none" xmlns="http://www.w3.org/2000/svg">
<path d="M21.9587 33.7333H11.0148M21.9587 33.7333V35.8667C21.9587 36.4325 21.7281 36.9751 21.3176 37.3752C20.9072 37.7752 20.3505 38 19.77 38H13.2036C12.6231 38 12.0664 37.7752 11.6559 37.3752C11.2454 36.9751 11.0148 36.4325 11.0148 35.8667V33.7333M21.9587 33.7333L25.9438 8.4576C25.9917 8.15367 25.9717 7.84323 25.8851 7.54755C25.7984 7.25187 25.6472 6.97793 25.4419 6.74452C25.2365 6.5111 24.9817 6.32372 24.6951 6.19521C24.4085 6.06671 24.0967 6.00012 23.7812 6H9.1894C8.87379 5.99991 8.56188 6.06635 8.27508 6.19477C7.98828 6.32318 7.73336 6.51054 7.52782 6.74398C7.32227 6.97742 7.17095 7.25142 7.08423 7.54721C6.99752 7.84299 6.97746 8.15355 7.02543 8.4576L11.0148 33.7333M34.0816 38V22.3556L37 18.0889V6.71111M31.1633 8.13333H37M31.1633 12.4H37M31.1633 16.6667H37M16.5714 13.8222V22.3556M12.1939 18.0889H20.949" stroke="#009FE3" stroke-width="2" stroke-linecap="round" stroke-linejoin="round"/>
</svg>
