<svg width="16" height="16" viewBox="0 0 16 16" fill="none" xmlns="http://www.w3.org/2000/svg">
<path d="M4.99993 2.92308V2M10.9999 2.92308V2M2.29993 6H13.6999M2 7.84616C2 5.52554 2 4.36493 2.7032 3.64431C3.4064 2.9237 4.5374 2.92308 6.8 2.92308H9.2C11.4626 2.92308 12.5942 2.92308 13.2968 3.64431C13.9994 4.36554 14 5.52554 14 7.84616V9.07693C14 11.3975 14 12.5582 13.2968 13.2788C12.5936 13.9994 11.4626 14 9.2 14H6.8C4.5374 14 3.4058 14 2.7032 13.2788C2.0006 12.5575 2 11.3975 2 9.07693V7.84616Z" stroke="#222222" stroke-opacity="0.4" stroke-linecap="round"/>
<path d="M11.6004 10.9231C11.6004 11.0863 11.5372 11.2429 11.4247 11.3583C11.3121 11.4737 11.1595 11.5385 11.0004 11.5385C10.8413 11.5385 10.6886 11.4737 10.5761 11.3583C10.4636 11.2429 10.4004 11.0863 10.4004 10.9231C10.4004 10.7599 10.4636 10.6034 10.5761 10.488C10.6886 10.3726 10.8413 10.3077 11.0004 10.3077C11.1595 10.3077 11.3121 10.3726 11.4247 10.488C11.5372 10.6034 11.6004 10.7599 11.6004 10.9231ZM11.6004 8.46158C11.6004 8.62479 11.5372 8.78131 11.4247 8.89672C11.3121 9.01213 11.1595 9.07696 11.0004 9.07696C10.8413 9.07696 10.6886 9.01213 10.5761 8.89672C10.4636 8.78131 10.4004 8.62479 10.4004 8.46158C10.4004 8.29837 10.4636 8.14184 10.5761 8.02643C10.6886 7.91103 10.8413 7.84619 11.0004 7.84619C11.1595 7.84619 11.3121 7.91103 11.4247 8.02643C11.5372 8.14184 11.6004 8.29837 11.6004 8.46158ZM8.60039 10.9231C8.60039 11.0863 8.53718 11.2429 8.42465 11.3583C8.31213 11.4737 8.15952 11.5385 8.00039 11.5385C7.84126 11.5385 7.68865 11.4737 7.57613 11.3583C7.4636 11.2429 7.40039 11.0863 7.40039 10.9231C7.40039 10.7599 7.4636 10.6034 7.57613 10.488C7.68865 10.3726 7.84126 10.3077 8.00039 10.3077C8.15952 10.3077 8.31213 10.3726 8.42465 10.488C8.53718 10.6034 8.60039 10.7599 8.60039 10.9231ZM8.60039 8.46158C8.60039 8.62479 8.53718 8.78131 8.42465 8.89672C8.31213 9.01213 8.15952 9.07696 8.00039 9.07696C7.84126 9.07696 7.68865 9.01213 7.57613 8.89672C7.4636 8.78131 7.40039 8.62479 7.40039 8.46158C7.40039 8.29837 7.4636 8.14184 7.57613 8.02643C7.68865 7.91103 7.84126 7.84619 8.00039 7.84619C8.15952 7.84619 8.31213 7.91103 8.42465 8.02643C8.53718 8.14184 8.60039 8.29837 8.60039 8.46158ZM5.60039 10.9231C5.60039 11.0863 5.53718 11.2429 5.42465 11.3583C5.31213 11.4737 5.15952 11.5385 5.00039 11.5385C4.84126 11.5385 4.68865 11.4737 4.57613 11.3583C4.4636 11.2429 4.40039 11.0863 4.40039 10.9231C4.40039 10.7599 4.4636 10.6034 4.57613 10.488C4.68865 10.3726 4.84126 10.3077 5.00039 10.3077C5.15952 10.3077 5.31213 10.3726 5.42465 10.488C5.53718 10.6034 5.60039 10.7599 5.60039 10.9231ZM5.60039 8.46158C5.60039 8.62479 5.53718 8.78131 5.42465 8.89672C5.31213 9.01213 5.15952 9.07696 5.00039 9.07696C4.84126 9.07696 4.68865 9.01213 4.57613 8.89672C4.4636 8.78131 4.40039 8.62479 4.40039 8.46158C4.40039 8.29837 4.4636 8.14184 4.57613 8.02643C4.68865 7.91103 4.84126 7.84619 5.00039 7.84619C5.15952 7.84619 5.31213 7.91103 5.42465 8.02643C5.53718 8.14184 5.60039 8.29837 5.60039 8.46158Z" fill="#222222" fill-opacity="0.4"/>
</svg>
