<svg width="44" height="44" viewBox="0 0 44 44" fill="none" xmlns="http://www.w3.org/2000/svg">
<path d="M20.1667 13.1666H23.8333M20.1667 13.1666C15.1041 13.1666 11 17.2707 11 22.3333V37.4073C11 39.2075 12.8761 40.6666 15.1905 40.6666H28.8096C31.124 40.6666 33 39.2075 33 37.4073V22.3333C33 17.2707 28.8959 13.1666 23.8333 13.1666M20.1667 13.1666H13.75C13.2437 13.1666 12.8333 12.7562 12.8333 12.25V7.66664C12.8333 5.64159 14.475 3.99997 16.5 3.99997H27.5C29.5251 3.99997 31.1667 5.64159 31.1667 7.66664V12.25C31.1667 12.7562 30.7562 13.1666 30.25 13.1666H23.8333" stroke="#009FE3" stroke-width="2" stroke-miterlimit="2.20439" stroke-linecap="square"/>
</svg>
