<svg width="16" height="16" viewBox="0 0 16 16" fill="none" xmlns="http://www.w3.org/2000/svg">
<path d="M4.17619 14.4987L4.01058 14.9705L4.17619 14.4987ZM2.51165 12.9321L2.04682 13.1163L2.51165 12.9321ZM13.3537 11.631L13.8185 11.8152L13.3537 11.631ZM10.4408 14.3726L10.2752 13.9008L10.4408 14.3726ZM12.531 1.86539L12.8189 1.45665L12.531 1.86539ZM13.1012 2.40209L12.7099 2.71333L13.1012 2.40209ZM14.1663 8.00016C14.1663 7.72402 13.9425 7.50016 13.6663 7.50016C13.3902 7.50016 13.1663 7.72402 13.1663 8.00016H14.1663ZM11.4441 10.2224V9.72238V10.2224ZM9.25976 11.0459L9.74272 11.1753L9.25976 11.0459ZM10.0454 10.2602L9.91602 9.77728H9.91602L10.0454 10.2602ZM6.99967 14.1668C6.72353 14.1668 6.49967 14.3907 6.49967 14.6668C6.49967 14.943 6.72353 15.1668 6.99967 15.1668V14.1668ZM5.33301 4.16683C5.05687 4.16683 4.83301 4.39069 4.83301 4.66683C4.83301 4.94297 5.05687 5.16683 5.33301 5.16683V4.16683ZM9.99967 5.16683C10.2758 5.16683 10.4997 4.94297 10.4997 4.66683C10.4997 4.39069 10.2758 4.16683 9.99967 4.16683V5.16683ZM5.33301 6.8335C5.05687 6.8335 4.83301 7.05735 4.83301 7.3335C4.83301 7.60964 5.05687 7.8335 5.33301 7.8335V6.8335ZM7.33301 7.8335C7.60915 7.8335 7.83301 7.60964 7.83301 7.3335C7.83301 7.05735 7.60915 6.8335 7.33301 6.8335V7.8335ZM7.99967 1.8335H8.51483V0.833496H7.99967V1.8335ZM13.1663 6.18198V7.87895H14.1663V6.18198H13.1663ZM2.83301 10.788V6.66683H1.83301V10.788H2.83301ZM6.45422 14.1668C5.21253 14.1668 4.72003 14.1597 4.3418 14.0269L4.01058 14.9705C4.59027 15.174 5.29715 15.1668 6.45422 15.1668V14.1668ZM1.83301 10.788C1.83301 11.3459 1.83276 11.7884 1.85642 12.1472C1.88038 12.5105 1.93038 12.8224 2.04682 13.1163L2.97648 12.7479C2.91428 12.5909 2.87495 12.3952 2.85425 12.0814C2.83326 11.7631 2.83301 11.359 2.83301 10.788H1.83301ZM4.3418 14.0269C3.7012 13.802 3.20751 13.3308 2.97648 12.7479L2.04682 13.1163C2.39017 13.9827 3.1112 14.6548 4.01058 14.9705L4.3418 14.0269ZM13.1663 7.87895C13.1663 8.87327 13.1661 9.59483 13.1283 10.167C13.0909 10.7348 13.0181 11.1208 12.8889 11.4468L13.8185 11.8152C14.002 11.3523 14.0855 10.85 14.1262 10.2328C14.1666 9.62011 14.1663 8.86008 14.1663 7.87895H13.1663ZM6.45422 15.1668C8.51082 15.1668 9.66747 15.174 10.6064 14.8444L10.2752 13.9008C9.53771 14.1597 8.59545 14.1668 6.45422 14.1668V15.1668ZM12.8889 11.4468C12.4425 12.5733 11.4933 13.4732 10.2752 13.9008L10.6064 14.8444C12.0832 14.3259 13.2598 13.2251 13.8185 11.8152L12.8889 11.4468ZM8.51483 1.8335C9.61264 1.8335 10.3973 1.83413 11.0033 1.89729C11.6012 1.95961 11.9649 2.07818 12.243 2.27413L12.8189 1.45665C12.3421 1.12071 11.7848 0.973324 11.1069 0.902676C10.4371 0.83286 9.59115 0.833496 8.51483 0.833496V1.8335ZM14.1663 6.18198C14.1663 5.17096 14.1671 4.36907 14.0923 3.73271C14.016 3.0846 13.8558 2.54756 13.4925 2.09085L12.7099 2.71333C12.9118 2.96714 13.0341 3.29693 13.0991 3.84957C13.1655 4.41396 13.1663 5.14675 13.1663 6.18198H14.1663ZM12.243 2.27413C12.421 2.39958 12.5781 2.54765 12.7099 2.71333L13.4925 2.09085C13.3005 1.84938 13.0735 1.63598 12.8189 1.45665L12.243 2.27413ZM7.99967 0.833496C6.67735 0.833496 5.63823 0.832554 4.82797 0.935083C4.00627 1.03906 3.34441 1.25706 2.82019 1.75044L3.50555 2.47864C3.8112 2.19098 4.23209 2.01846 4.95351 1.92717C5.68635 1.83444 6.6507 1.8335 7.99967 1.8335V0.833496ZM2.83301 6.66683C2.83301 5.39476 2.8342 4.4941 2.93172 3.81148C3.02671 3.1465 3.2042 2.76227 3.50555 2.47864L2.82019 1.75044C2.29168 2.24786 2.05424 2.8827 1.94177 3.67006C1.83181 4.43978 1.83301 5.42474 1.83301 6.66683H2.83301ZM13.1663 8.00016C13.1663 8.95132 12.3953 9.72238 11.4441 9.72238V10.7224C12.9476 10.7224 14.1663 9.5036 14.1663 8.00016H13.1663ZM9.74272 11.1753C9.79923 10.9644 9.96395 10.7997 10.1748 10.7432L9.91602 9.77728C9.36004 9.92626 8.92577 10.3605 8.77679 10.9165L9.74272 11.1753ZM6.99967 15.1668C8.50312 15.1668 9.7219 13.948 9.7219 12.4446H8.7219C8.7219 13.3958 7.95083 14.1668 6.99967 14.1668V15.1668ZM9.7219 12.4446C9.7219 12.3208 9.71649 12.1944 9.71101 12.0763C9.70537 11.9548 9.69968 11.8423 9.69736 11.7303C9.69264 11.5032 9.70357 11.3214 9.74272 11.1753L8.77679 10.9165C8.70031 11.2019 8.69231 11.4976 8.69757 11.751C8.70023 11.8792 8.70676 12.0078 8.71209 12.1227C8.71758 12.2411 8.7219 12.3465 8.7219 12.4446H9.7219ZM11.4441 9.72238C11.346 9.72238 11.2406 9.71807 11.1222 9.71258C11.0073 9.70725 10.8787 9.70072 10.7505 9.69806C10.4971 9.6928 10.2015 9.7008 9.91602 9.77728L10.1748 10.7432C10.321 10.7041 10.5027 10.6931 10.7298 10.6978C10.8418 10.7002 10.9543 10.7059 11.0758 10.7115C11.1939 10.717 11.3203 10.7224 11.4441 10.7224V9.72238ZM5.33301 5.16683H9.99967V4.16683H5.33301V5.16683ZM5.33301 7.8335H7.33301V6.8335H5.33301V7.8335Z" fill="#222222" fill-opacity="0.4"/>
</svg>
