<svg width="44" height="44" viewBox="0 0 44 44" fill="none" xmlns="http://www.w3.org/2000/svg">
<path d="M16.5 22H16.5183M27.5 22H27.5183M18.3333 29.3333C19.25 29.8833 20.5333 30.25 22 30.25C23.4667 30.25 24.75 29.8833 25.6667 29.3333" stroke="#009FE3" stroke-width="2" stroke-linecap="round" stroke-linejoin="round"/>
<path d="M34.8334 11.55C36.4944 13.6321 37.6266 16.0853 38.1334 18.7C38.7533 19.0002 39.2762 19.469 39.642 20.0527C40.0078 20.6363 40.2018 21.3112 40.2018 22C40.2018 22.6888 40.0078 23.3637 39.642 23.9473C39.2762 24.531 38.7533 24.9998 38.1334 25.3C37.3419 28.9914 35.3085 32.2997 32.3725 34.673C29.4365 37.0462 25.7754 38.3409 22.0001 38.3409C18.2248 38.3409 14.5637 37.0462 11.6277 34.673C8.69161 32.2997 6.65821 28.9914 5.86674 25.3C5.24682 24.9998 4.724 24.531 4.35818 23.9473C3.99236 23.3637 3.79834 22.6888 3.79834 22C3.79834 21.3112 3.99236 20.6363 4.35818 20.0527C4.724 19.469 5.24682 19.0002 5.86674 18.7C6.62623 14.9793 8.64588 11.6344 11.585 9.22967C14.524 6.82497 18.2026 5.50767 22.0001 5.5C25.6667 5.5 28.4167 7.51667 28.4167 10.0833C28.4167 12.65 26.7667 14.6667 24.7501 14.6667C23.2834 14.6667 22.0001 13.9333 22.0001 12.8333" stroke="#009FE3" stroke-width="2" stroke-linecap="round" stroke-linejoin="round"/>
</svg>
