<svg width="44" height="44" viewBox="0 0 44 44" fill="none" xmlns="http://www.w3.org/2000/svg">
<path d="M12.2583 12.2582L6.18315 18.3333C2.82795 21.6885 2.82795 27.1284 6.18315 30.4836C9.53835 33.8387 14.9782 33.6052 18.3334 30.25M12.2583 12.2582L18.3334 6.18306C21.6886 2.82786 27.1285 2.82786 30.4837 6.18306C33.8388 9.53826 33.6768 15.0223 30.3216 18.3775M12.2583 12.2582L21.5553 21.5552M18.3334 30.25C18.5609 32.7177 19.6661 35.2224 21.5553 37.1114C25.851 41.4073 32.8158 41.4073 37.1115 37.1114C41.4074 32.8157 41.4074 25.8509 37.1115 21.5552C35.2153 19.6588 32.799 18.5997 30.3216 18.3775M18.3334 30.25C18.0436 27.1067 19.1487 23.9617 21.5553 21.5552M30.3216 18.3775C27.187 18.0965 23.9548 19.1558 21.5553 21.5552M9.53342 22C8.19135 23.342 8.19135 25.0794 9.53342 26.4216M18.3334 29.3333H40.3334" stroke="#009FE3" stroke-width="2" stroke-linecap="round" stroke-linejoin="round"/>
</svg>
