<svg width="44" height="44" viewBox="0 0 44 44" fill="none" xmlns="http://www.w3.org/2000/svg">
<path d="M14.3509 22.4112L22.4126 14.3495M28.862 20.7988L20.8003 28.8605M4.19695 29.5212C2.31659 27.6409 1.37744 26.7017 1.24446 25.5527C1.21474 25.2973 1.21474 25.0394 1.24446 24.784C1.37744 23.637 2.31659 22.6979 4.19488 20.8196C6.07524 18.9392 7.01439 18.0001 8.16131 17.8671C8.41895 17.8353 8.67521 17.8353 8.93008 17.8671C10.0791 18.0001 11.0182 18.9392 12.8986 20.8175L23.1793 31.1024C25.0597 32.9807 25.9988 33.9198 26.1318 35.0668C26.1637 35.3244 26.1637 35.5814 26.1318 35.8376C25.9988 36.9845 25.0597 37.9237 23.1814 39.802C21.301 41.6823 20.3619 42.6215 19.215 42.7545C18.9596 42.7842 18.7016 42.7842 18.4462 42.7545C17.2972 42.6215 16.358 41.6823 14.4777 39.804L4.19695 29.5212ZM20.819 12.8992C18.9386 11.0188 17.9995 10.0797 17.8665 8.9307C17.8368 8.6753 17.8368 8.41732 17.8665 8.16193C17.9995 7.01501 18.9386 6.07586 20.8169 4.19757C22.6973 2.31721 23.6364 1.37806 24.7833 1.24508C25.041 1.21461 25.2972 1.21461 25.5521 1.24508C26.7011 1.37806 27.6402 2.31721 29.5206 4.19549L39.8013 14.4804C41.6817 16.3587 42.6209 17.2978 42.7538 18.4447C42.7857 18.701 42.7857 18.9579 42.7538 19.2156C42.6209 20.3625 41.6817 21.3016 39.8034 23.1799C37.9231 25.0603 36.9839 25.9994 35.837 26.1324C35.5816 26.1621 35.3236 26.1621 35.0682 26.1324C33.9192 25.9994 32.9801 25.0603 31.0997 23.182L20.819 12.8992Z" stroke="#009FE3" stroke-width="2"/>
<path d="M34.5052 2.25696L40.9545 8.70631M2.25635 34.5058L8.7057 40.9551" stroke="#009FE3" stroke-width="2" stroke-linecap="round" stroke-linejoin="round"/>
</svg>
