<svg width="32" height="32" viewBox="0 0 32 32" fill="none" xmlns="http://www.w3.org/2000/svg">
<path d="M16 2L16.6621 1.25058C16.2839 0.916475 15.7161 0.916475 15.3379 1.25058L16 2ZM29.2411 6.66667L30.2004 6.38426C30.0704 5.94252 29.6555 5.64669 29.1955 5.66771L29.2411 6.66667ZM16 30L15.7493 30.9681C15.9137 31.0106 16.0863 31.0106 16.2507 30.9681L16 30ZM2.75886 6.66667L2.8045 5.66771C2.3445 5.64669 1.9296 5.94252 1.79956 6.38426L2.75886 6.66667ZM17 10C17 9.44772 16.5523 9 16 9C15.4477 9 15 9.44772 15 10H17ZM15 22C15 22.5523 15.4477 23 16 23C16.5523 23 17 22.5523 17 22H15ZM10 15C9.44772 15 9 15.4477 9 16C9 16.5523 9.44772 17 10 17V15ZM22 17C22.5523 17 23 16.5523 23 16C23 15.4477 22.5523 15 22 15V17ZM15.3379 2.74942C19.1713 6.13612 24.1743 7.89924 29.2868 7.66562L29.1955 5.66771C24.6014 5.87764 20.1061 4.29323 16.6621 1.25058L15.3379 2.74942ZM28.2818 6.94907C28.9505 9.22058 29.1552 11.6031 28.8835 13.9551L30.8703 14.1846C31.1727 11.5659 30.9449 8.91324 30.2004 6.38426L28.2818 6.94907ZM28.8835 13.9551C28.6119 16.3071 27.8695 18.5806 26.7006 20.6406L28.44 21.6277C29.7414 19.3344 30.5679 16.8032 30.8703 14.1846L28.8835 13.9551ZM26.7006 20.6406C25.5316 22.7006 23.9598 24.505 22.0785 25.9465L23.2949 27.5341C25.3889 25.9295 27.1386 23.921 28.44 21.6277L26.7006 20.6406ZM22.0785 25.9465C20.1972 27.3881 18.0448 28.4374 15.7493 29.0319L16.2507 30.9681C18.8054 30.3064 21.201 29.1386 23.2949 27.5341L22.0785 25.9465ZM16.2507 29.0319C13.9552 28.4374 11.8028 27.3881 9.92152 25.9465L8.70506 27.5341C10.799 29.1386 13.1946 30.3064 15.7493 30.9681L16.2507 29.0319ZM9.92152 25.9465C8.04024 24.505 6.46843 22.7006 5.29945 20.6406L3.56001 21.6277C4.86139 23.921 6.61109 25.9295 8.70506 27.5341L9.92152 25.9465ZM5.29945 20.6406C4.13046 18.5806 3.38812 16.3071 3.11648 13.9551L1.12969 14.1846C1.43212 16.8032 2.25862 19.3344 3.56001 21.6277L5.29945 20.6406ZM3.11648 13.9551C2.84485 11.6031 3.04945 9.22058 3.71815 6.94907L1.79956 6.38426C1.05506 8.91324 0.827257 11.5659 1.12969 14.1846L3.11648 13.9551ZM2.71321 7.66562C7.8257 7.89924 12.8287 6.13612 16.6621 2.74942L15.3379 1.25058C11.8939 4.29323 7.39864 5.87764 2.8045 5.66771L2.71321 7.66562ZM15 10V16H17V10H15ZM15 16V22H17V16H15ZM10 17H16V15H10V17ZM16 17H22V15H16V17Z" fill="#009FE3"/>
</svg>
