<svg width="32" height="32" viewBox="0 0 32 32" fill="none" xmlns="http://www.w3.org/2000/svg">
<path d="M16.9136 2.0077C18.4267 2.1143 19.8116 2.40184 20.7743 3.34862C21.7568 4.31363 22.0692 5.72748 22.0692 7.47375C22.0692 8.07969 21.989 8.81326 21.9045 9.49073L21.7976 10.293L21.7188 10.8948H24.6041C25.6625 10.8948 26.6393 11.0463 27.4697 11.4614C28.3311 11.8906 28.9645 12.5653 29.3768 13.4686C30.1524 15.1714 30.1397 17.6877 29.6907 21.0344L29.6189 21.5814C29.4303 22.9981 29.2699 24.2071 29.0616 25.2002C28.8279 26.3153 28.507 27.2985 27.9131 28.0756C26.6604 29.7139 24.5422 30 21.4626 30C18.1818 30 15.7201 29.4137 13.6595 28.8442L12.8122 28.6058C11.3724 28.199 10.2056 27.868 9.02613 27.7838C8.96669 28.3907 8.68269 28.9539 8.22946 29.3635C7.77622 29.7732 7.1862 30.0001 6.5743 30H4.46309C3.80983 30 3.18334 29.7414 2.72142 29.2811C2.2595 28.8207 2 28.1964 2 27.5454V12.8178C2 11.4628 3.10346 10.3632 4.46309 10.3632H6.5743C7.19903 10.3632 7.8004 10.5998 8.25666 11.0251C8.71293 11.4503 8.98999 12.0325 9.03176 12.6537C9.28433 12.6258 9.53194 12.564 9.76787 12.4699C11.1205 11.8878 13.6722 10.3183 13.6722 6.57887V5.1019C13.6722 3.39069 15.0825 1.87866 16.9136 2.0077ZM9.03739 25.6771C10.5279 25.7669 11.9635 26.175 13.4259 26.5916L14.2253 26.816C16.2043 27.3631 18.4562 27.8961 21.4626 27.8961C24.6674 27.8961 25.6907 27.5117 26.2339 26.8006C26.538 26.4037 26.78 25.7935 26.994 24.7696C27.1854 23.8579 27.3346 22.7358 27.5274 21.2953L27.5978 20.7567C28.0482 17.3904 27.9539 15.4337 27.4542 14.3396C27.229 13.8459 26.9264 13.5429 26.5253 13.3424C26.096 13.1278 25.4838 12.9987 24.6041 12.9987H21.2684C20.3099 12.9987 19.4485 12.1992 19.5639 11.136C19.6005 10.7952 19.6554 10.3828 19.7117 9.96623L19.8102 9.22704C19.8947 8.55097 19.958 7.93522 19.958 7.47375C19.958 5.89579 19.6582 5.2057 19.2923 4.84662C18.9052 4.46791 18.2029 4.20843 16.7658 4.10604C16.2718 4.07237 15.7834 4.49036 15.7834 5.1019V6.57887C15.7834 11.5582 12.2816 13.6804 10.6039 14.4013C10.0803 14.6258 9.54267 14.7268 9.03739 14.766V25.6771ZM4.46309 27.8961H6.5743C6.66762 27.8961 6.75712 27.8591 6.82311 27.7934C6.8891 27.7276 6.92617 27.6384 6.92617 27.5454V12.8178C6.92617 12.7248 6.8891 12.6356 6.82311 12.5698C6.75712 12.5041 6.66762 12.4671 6.5743 12.4671H4.46309C4.36976 12.4671 4.28026 12.5041 4.21428 12.5698C4.14829 12.6356 4.11122 12.7248 4.11122 12.8178V27.5454C4.11122 27.739 4.26885 27.8961 4.46309 27.8961Z" fill="#009FE3"/>
</svg>
