<svg width="24" height="24" viewBox="0 0 24 24" fill="none" xmlns="http://www.w3.org/2000/svg">
<path d="M13.9136 20.25L13.9118 20.25C13.8045 20.2502 13.6989 20.2227 13.6053 20.1701L13.2378 20.8239L13.6053 20.1701C13.518 20.121 13.4439 20.0517 13.3891 19.968L13.3478 19.8872L10.38 13.9535L10.2682 13.73L10.0447 13.6182L4.13628 10.6631L4.1246 10.6572L4.11273 10.6518C4.01352 10.6064 3.92797 10.5358 3.86463 10.447C3.80462 10.3629 3.76653 10.2652 3.75368 10.1629L3.75012 10.0745C3.75408 9.87274 3.85728 9.67217 4.09601 9.53604L4.16508 9.50151L20.0587 3.76226L20.0877 3.75407L20.1013 3.75178L20.1097 3.75131L20.1377 3.75303L20.1636 3.76039L20.1753 3.76542L20.1876 3.77243L20.2002 3.78184L20.2111 3.79179L20.2316 3.82077L20.2415 3.83906C20.2442 3.84639 20.2464 3.85398 20.2482 3.8621L20.2497 3.89395C20.2495 3.89709 20.2492 3.9 20.2489 3.90271L20.2335 3.95667L14.4689 19.9098C14.4188 20.0083 14.3433 20.0917 14.25 20.1515C14.1496 20.2159 14.0329 20.25 13.9136 20.25Z" stroke="#222222" stroke-opacity="0.6" stroke-width="1.5"/>
</svg>
