<svg width="136" height="136" viewBox="0 0 136 136" fill="none" xmlns="http://www.w3.org/2000/svg">
<path d="M17.0001 57.4568C29.4001 57.4568 34.8335 46.7901 36.0001 41.4568L52 58.4568C51 62.4568 45.5 70.8568 31.5 72.4568C17.5 74.0568 17.6667 84.4568 19.5 89.4568L2.00012 73.9568C1.83345 68.4568 4.60012 57.4568 17.0001 57.4568Z" fill="white"/>
<path d="M56.007 17.9568C68.407 17.9568 73.8403 7.29012 75.007 1.95679L91.0069 18.9568C90.0069 22.9568 84.5069 31.3568 70.5069 32.9568C56.5069 34.5568 54.1737 47.9568 56.007 52.9568L38.4999 34.9568C38.3333 29.4568 43.607 17.9568 56.007 17.9568Z" fill="white"/>
<path d="M38.007 79.9568C50.407 79.9568 55.8403 69.2901 57.007 63.9568L73.0068 80.9568C72.0068 84.9568 66.5068 93.3568 52.5068 94.9568C38.5068 96.5568 38.6735 106.957 40.5068 111.957L23.007 96.4568C22.8403 90.9568 25.607 79.9568 38.007 79.9568Z" fill="white"/>
<path d="M77.0134 40.4568C89.4134 40.4568 94.8467 29.7901 96.0134 24.4568L112.013 41.4568C111.013 45.4568 105.513 53.8568 91.5132 55.4568C77.5132 57.0568 77 68.9568 76 74.4568L60.4998 56.9568C60.3331 51.4568 64.6134 40.4568 77.0134 40.4568Z" fill="white"/>
<path d="M59.0138 102.457C71.4138 102.457 76.8471 91.7901 78.0138 86.4568L94.0137 103.457C93.0137 107.457 87.5137 115.857 73.5137 117.457C59.5137 119.057 59.6803 129.457 61.5137 134.457L44.0138 118.957C43.8471 113.457 46.6138 102.457 59.0138 102.457Z" fill="white"/>
<path d="M98.0208 62.9568C110.421 62.9568 115.854 52.2901 117.021 46.9568L133.021 63.9568C132.021 67.9568 126.596 78.6257 112.521 77.9568C102 77.4568 96.6667 92.9568 98.5 97.9568L81.5003 79.9568C81.3336 74.4568 85.6208 62.9568 98.0208 62.9568Z" fill="white"/>
</svg>
