<svg width="32" height="32" viewBox="0 0 32 32" fill="none" xmlns="http://www.w3.org/2000/svg">
<path d="M16 7.6V10.4M16 10.4V13.2M16 10.4H13.1111M16 10.4H18.8889M10.2222 18.8H21.7778M11.6667 24.4H20.3333M3 13.2C3 7.9206 3 5.2802 4.69289 3.6408C6.38433 2 9.10856 2 14.5556 2H17.4444C22.8914 2 25.6157 2 27.3071 3.6408C29 5.2802 29 7.9206 29 13.2V18.8C29 24.0794 29 26.7198 27.3071 28.3592C25.6157 30 22.8914 30 17.4444 30H14.5556C9.10856 30 6.38433 30 4.69289 28.3592C3 26.7198 3 24.0794 3 18.8V13.2Z" stroke="#009FE3" stroke-width="2" stroke-linecap="round"/>
</svg>
