<svg width="14" height="12" viewBox="0 0 14 12" fill="none" xmlns="http://www.w3.org/2000/svg">
<path d="M12.0003 6.74836L8.0169 10.42C7.7528 10.6633 7.39466 10.8 7.02123 10.8C6.64779 10.8 6.28965 10.6633 6.02555 10.42L2.04214 6.74901C1.71285 6.4482 1.45128 6.09041 1.27245 5.69618C1.09361 5.30196 1.00102 4.87906 1.00001 4.45177C0.998993 4.02448 1.08957 3.60122 1.26653 3.20627C1.44349 2.81133 1.70336 2.45249 2.03121 2.15035C2.35906 1.84821 2.74844 1.60872 3.177 1.44564C3.60555 1.28255 4.06484 1.19908 4.52849 1.20002C4.99214 1.20096 5.45103 1.28628 5.8788 1.45109C6.30657 1.6159 6.69481 1.85696 7.02123 2.16042C7.68423 1.56462 8.57526 1.23353 9.50128 1.23888C10.4273 1.24422 11.3138 1.58558 11.9686 2.18899C12.6235 2.7924 12.994 3.60928 12.9999 4.46268C13.0059 5.31608 12.6467 6.13727 12.0003 6.74836Z" stroke="#222222" stroke-opacity="0.4" stroke-width="1.5" stroke-linecap="round" stroke-linejoin="round"/>
</svg>
