<svg width="16" height="16" viewBox="0 0 16 16" fill="none" xmlns="http://www.w3.org/2000/svg">
<path d="M9.99967 11.9998C9.99967 12.7362 10.5966 13.3332 11.333 13.3332C12.0694 13.3332 12.6663 12.7362 12.6663 11.9998C12.6663 11.2635 12.0694 10.6665 11.333 10.6665C10.5966 10.6665 9.99967 11.2635 9.99967 11.9998ZM9.99967 11.9998H5.99967M5.99967 11.9998C5.99967 12.7362 5.40272 13.3332 4.66634 13.3332C3.92996 13.3332 3.33301 12.7362 3.33301 11.9998C3.33301 11.2635 3.92996 10.6665 4.66634 10.6665C5.40272 10.6665 5.99967 11.2635 5.99967 11.9998ZM3.33301 11.9812C2.60167 11.9452 2.14634 11.8365 1.82101 11.5118C1.49567 11.1872 1.38767 10.7312 1.35167 9.99984M12.6663 11.9812C13.3977 11.9452 13.853 11.8365 14.1783 11.5118C14.6663 11.0232 14.6663 10.2378 14.6663 8.6665V7.33317M14.6663 7.33317H11.533C11.0363 7.33317 10.7883 7.33317 10.5877 7.26784C10.3876 7.20281 10.2057 7.09136 10.0569 6.94258C9.90815 6.79381 9.7967 6.61194 9.73167 6.41184C9.66634 6.21117 9.66634 5.96317 9.66634 5.4665C9.66634 4.72184 9.66634 4.34984 9.56834 4.0485C9.47081 3.74835 9.30362 3.47555 9.08046 3.25238C8.8573 3.02922 8.58449 2.86204 8.28434 2.7645C7.98301 2.6665 7.61101 2.6665 6.86634 2.6665H1.33301M14.6663 7.33317L13.8157 5.75317C13.3557 4.8985 13.1257 4.47117 12.7303 4.23584C12.3357 3.99984 11.851 3.99984 10.8803 3.99984H9.66634M1.33301 5.33317H5.33301M1.33301 7.33317H3.99967" stroke="white" stroke-linecap="round" stroke-linejoin="round"/>
</svg>
