<svg width="32" height="32" viewBox="0 0 32 32" fill="none" xmlns="http://www.w3.org/2000/svg">
<path d="M13.4132 23.3248C13.5676 23.159 13.6517 22.9397 13.6477 22.7131C13.6437 22.4864 13.552 22.2702 13.3918 22.11C13.2317 21.9497 13.0156 21.8579 12.7891 21.8539C12.5627 21.8499 12.3435 21.934 12.1778 22.0885L9.87251 24.3943C9.64305 24.6236 9.33202 24.7525 9.00772 24.7525C8.68343 24.7525 8.37239 24.6236 8.14294 24.3943L7.58584 23.838C7.42014 23.6835 7.20098 23.5994 6.97452 23.6034C6.74807 23.6074 6.53201 23.6992 6.37185 23.8594C6.2117 24.0197 6.11997 24.2359 6.11597 24.4625C6.11198 24.6891 6.19603 24.9084 6.35044 25.0743L6.90637 25.6306C7.46371 26.1882 8.21958 26.5015 9.00772 26.5015C9.79587 26.5015 10.5517 26.1882 11.1091 25.6306L13.4132 23.3248ZM27.9514 4.05051C25.2265 1.3237 20.8012 1.3132 18.074 4.03885L4.04396 18.0578C1.31441 20.7869 1.3214 25.22 4.04862 27.9504C6.7735 30.676 11.2 30.6865 13.926 27.962L27.956 13.9431C30.6856 11.2139 30.6786 6.77966 27.9514 4.05051ZM11.6732 12.9074L19.0903 20.3297L12.6918 26.7234C11.7071 27.7029 10.3745 28.2518 8.98608 28.2496C7.59767 28.2474 6.26678 27.6944 5.28519 26.7118C4.30298 25.7285 3.75072 24.3955 3.74962 23.0053C3.74853 21.615 4.2987 20.2812 5.27936 19.2964L11.6732 12.9074ZM26.7206 12.7045L20.3268 19.0935L12.9097 11.6711L19.3082 5.27629C20.2929 4.29678 21.6255 3.74795 23.0139 3.75013C24.4023 3.75232 25.7332 4.30534 26.7148 5.28796C27.6974 6.27121 28.2499 7.60447 28.251 8.99501C28.252 10.3855 27.7017 11.7197 26.7206 12.7045Z" fill="#009FE3"/>
</svg>
