<svg width="20" height="20" viewBox="0 0 20 20" fill="none" xmlns="http://www.w3.org/2000/svg">
<path d="M9.99984 11.7056C8.16042 11.5337 6.27532 11.9323 4.64782 12.9014C3.46884 13.6034 0.377641 15.0368 2.26039 16.8306C3.18009 17.7068 4.20441 18.3334 5.49223 18.3334H10.8332" stroke="#009FE3" stroke-linecap="round" stroke-linejoin="round"/>
<path d="M12.9165 5.41675C12.9165 7.48782 11.2376 9.16675 9.1665 9.16675C7.09544 9.16675 5.4165 7.48782 5.4165 5.41675C5.4165 3.34568 7.09544 1.66675 9.1665 1.66675C11.2376 1.66675 12.9165 3.34568 12.9165 5.41675Z" stroke="#009FE3"/>
<path d="M14.9992 11.6667C13.9438 11.6667 13.2596 12.3397 12.4503 12.585C12.1212 12.6848 11.9567 12.7347 11.8901 12.805C11.8235 12.8753 11.804 12.978 11.765 13.1835C11.3477 15.3821 12.2598 17.4147 14.435 18.2059C14.6687 18.2909 14.7856 18.3334 15.0004 18.3334C15.2151 18.3334 15.332 18.2909 15.5657 18.2059C17.7408 17.4147 18.652 15.3821 18.2346 13.1835C18.1956 12.978 18.176 12.8752 18.1094 12.8049C18.0428 12.7346 17.8783 12.6848 17.5493 12.5851C16.7397 12.3398 16.0546 11.6667 14.9992 11.6667Z" stroke="#009FE3" stroke-linecap="round" stroke-linejoin="round"/>
</svg>
