<svg width="16" height="16" viewBox="0 0 16 16" fill="none" xmlns="http://www.w3.org/2000/svg">
<path d="M2 6.66668C2 4.15268 2 2.89534 2.78133 2.11468C3.562 1.33334 4.81933 1.33334 7.33333 1.33334H8.66667C11.1807 1.33334 12.438 1.33334 13.2187 2.11468C14 2.89534 14 4.15268 14 6.66668V9.33334C14 11.8473 14 13.1047 13.2187 13.8853C12.438 14.6667 11.1807 14.6667 8.66667 14.6667H7.33333C4.81933 14.6667 3.562 14.6667 2.78133 13.8853C2 13.1047 2 11.8473 2 9.33334V6.66668Z" stroke="#222222" stroke-opacity="0.6"/>
<path d="M5.33325 6.66669H10.6666M5.33325 9.33335H8.66659" stroke="#222222" stroke-opacity="0.6" stroke-linecap="round"/>
</svg>
