<svg width="56" height="56" viewBox="0 0 56 56" fill="none" xmlns="http://www.w3.org/2000/svg">
<path d="M0 26.88C0 14.2086 0 7.87297 3.93648 3.93648C7.87297 0 14.2086 0 26.88 0H29.12C41.7914 0 48.127 0 52.0635 3.93648C56 7.87297 56 14.2086 56 26.88V29.12C56 41.7914 56 48.127 52.0635 52.0635C48.127 56 41.7914 56 29.12 56H26.88C14.2086 56 7.87297 56 3.93648 52.0635C0 48.127 0 41.7914 0 29.12V26.88Z" fill="#0077FF"/>
<path d="M29.7968 40.3434C17.0335 40.3434 9.75353 31.5934 9.4502 17.0334H15.8435C16.0535 27.7201 20.7667 32.2467 24.5001 33.1801V17.0334H30.5203V26.2501C34.2069 25.8534 38.0798 21.6534 39.3865 17.0334H45.4067C44.4033 22.7268 40.2033 26.9267 37.2166 28.6534C40.2033 30.0534 44.9869 33.7168 46.8069 40.3434H40.18C38.7567 35.9101 35.2103 32.4801 30.5203 32.0134V40.3434H29.7968Z" fill="white"/>
</svg>
