<svg width="56" height="56" viewBox="0 0 56 56" fill="none" xmlns="http://www.w3.org/2000/svg">
<path d="M0 26.88C0 14.2086 0 7.87297 3.93648 3.93648C7.87297 0 14.2086 0 26.88 0H29.12C41.7913 0 48.127 0 52.0635 3.93648C56 7.87297 56 14.2086 56 26.88V29.12C56 41.7913 56 48.127 52.0635 52.0635C48.127 56 41.7914 56 29.12 56H26.88C14.2086 56 7.87297 56 3.93648 52.0635C0 48.127 0 41.7914 0 29.12V26.88Z" fill="#FC3F1D"/>
<path d="M31.1991 18.3886H29.1673C25.4423 18.3886 23.4858 20.2576 23.4858 23.0235C23.4858 26.1634 24.8403 27.6211 27.6247 29.4902L29.9197 31.0227L23.2977 40.8533H18.3687L24.3135 32.0692C20.8896 29.6395 18.9706 27.2848 18.9706 23.2852C18.9706 18.2766 22.4699 14.875 29.1296 14.875H35.7518V40.8533H31.1991V18.3886Z" fill="white"/>
</svg>
